<svg width="12" height="12" viewBox="0 0 12 12" fill="none" xmlns="http://www.w3.org/2000/svg">
<path d="M3.84411 6.00254L8.33328 1.51317C8.45689 1.38985 8.52489 1.22498 8.52489 1.04917C8.52489 0.873268 8.45689 0.708488 8.33328 0.584976L7.93991 0.191805C7.8165 0.0680976 7.65152 0 7.47572 0C7.29991 0 7.13513 0.0680976 7.01162 0.191805L1.66655 5.53678C1.54255 5.66068 1.47464 5.82624 1.47513 6.00224C1.47464 6.17902 1.54245 6.34439 1.66655 6.46839L7.00664 11.8082C7.13016 11.9319 7.29494 12 7.47084 12C7.64664 12 7.81142 11.9319 7.93503 11.8082L8.3283 11.415C8.5842 11.1591 8.5842 10.7425 8.3283 10.4867L3.84411 6.00254Z" fill="#0D263B"/>
</svg>
