<svg width="15" height="15" viewBox="0 0 15 15" fill="none" xmlns="http://www.w3.org/2000/svg">
<path d="M13.7574 2.36529C12.1262 0.813027 9.47106 0.813027 7.83932 2.36494L7.50003 2.68721L7.16109 2.36509C5.52917 0.812969 2.87443 0.813145 1.24251 2.36509C0.44124 3.12722 0 4.1381 0 5.21125C0 6.28475 0.44124 7.29546 1.24263 8.05791L7.13771 13.6546C7.23911 13.7511 7.36966 13.7991 7.5 13.7991C7.63034 13.7991 7.76071 13.7509 7.86229 13.6544L13.7574 8.05791C14.5586 7.29563 15 6.28478 15 5.21143C15 4.13811 14.5586 3.12739 13.7574 2.36529ZM13.0321 7.29476L7.5 12.547L1.96808 7.29493C1.37771 6.73354 1.05264 5.99354 1.05264 5.21143C1.05264 4.42932 1.37771 3.68931 1.96808 3.12792C2.58387 2.54195 3.39264 2.24916 4.20158 2.24916C5.0107 2.24916 5.81982 2.5423 6.43562 3.12827L7.13736 3.79478C7.34051 3.98793 7.65929 3.98793 7.86246 3.79478L8.56438 3.12792C9.79614 1.95616 11.8002 1.95616 13.0319 3.12792C13.6221 3.68934 13.9474 4.42932 13.9474 5.21143C13.9474 5.99354 13.6221 6.73337 13.0321 7.29476Z" fill="#696969"/>
</svg>
