<svg width="18" height="18" viewBox="0 0 18 18" fill="none" xmlns="http://www.w3.org/2000/svg">
<g clip-path="url(#clip0)">
<path d="M12.937 18C12.3559 18 11.7798 17.8973 11.2165 17.6926C8.7346 16.791 6.43091 15.3226 4.55435 13.4461C2.67778 11.5696 1.20937 9.26582 0.307821 6.78396C0.01811 5.98637 -0.0673865 5.16305 0.0537921 4.33677C0.167307 3.5628 0.467107 2.81144 0.920815 2.16388C1.37653 1.51348 1.98407 0.972523 2.67775 0.599495C3.41747 0.201718 4.22487 0 5.07759 0C5.3428 0 5.57201 0.185301 5.62759 0.444603L6.51046 4.56471C6.55044 4.75128 6.4931 4.9454 6.35821 5.08033L4.84961 6.58889C6.27275 9.41836 8.582 11.7276 11.4115 13.1507L12.92 11.6421C13.055 11.5073 13.2491 11.45 13.4356 11.4899L17.5558 12.3728C17.8151 12.4283 18.0004 12.6576 18.0004 12.9228C18.0004 13.7755 17.7986 14.5829 17.4008 15.3226C17.0278 16.0163 16.4868 16.6239 15.8364 17.0796C15.1889 17.5333 14.4376 17.8331 13.6636 17.9466C13.421 17.9822 13.1785 18 12.937 18ZM4.62817 1.14956C3.50339 1.27373 2.50507 1.86328 1.84212 2.80947C1.09662 3.87343 0.922784 5.18206 1.36517 6.3999C3.09844 11.1713 6.82911 14.902 11.6005 16.6353C12.8183 17.0776 14.127 16.9038 15.191 16.1583C16.1372 15.4954 16.7267 14.497 16.8509 13.3723L13.4992 12.654L11.9237 14.2295C11.756 14.3972 11.5013 14.4417 11.2868 14.3409C7.94039 12.7688 5.23164 10.06 3.65952 6.71365C3.55873 6.4991 3.60323 6.24437 3.77089 6.07675L5.34638 4.50126L4.62817 1.14956Z" fill="white"/>
</g>
<defs>
<clipPath id="clip0">
<rect width="18" height="18" fill="white"/>
</clipPath>
</defs>
</svg>
